<?xml version="1.0" encoding="utf-8"?>
<!-- Generator: Adobe Illustrator 16.0.4, SVG Export Plug-In . SVG Version: 6.00 Build 0)  -->
<!DOCTYPE svg PUBLIC "-//W3C//DTD SVG 1.1//EN" "http://www.w3.org/Graphics/SVG/1.1/DTD/svg11.dtd">
<svg version="1.1" id="Layer_1" xmlns="http://www.w3.org/2000/svg" xmlns:xlink="http://www.w3.org/1999/xlink" x="0px" y="0px"
	 width="58.947px" height="57.895px" viewBox="0 0 58.947 57.895" enable-background="new 0 0 58.947 57.895" xml:space="preserve">
<g>
	<path fill="#FFFFFF" d="M27.644,30.553c0.064,0.08,0.028,0.636,0.028,0.739l0.003,11.724h5.083c0.029-3.086,0-6.253,0-9.353
		c0-0.045-0.01-3.003,0.004-3.065c0.01-0.041,0.012-0.035,0.021-0.052c0.008,0.001,3.234,0.026,3.346-0.002l0.057-0.016l0.447-4.279
		h-3.858c-0.015-0.632,0.003-1.281,0.004-1.915c0-0.579-0.015-1.294,0.33-1.611l3.504-0.352l-0.006-4.293
		c-0.663-0.04-1.449-0.003-2.126-0.003c-0.703,0-1.416-0.016-2.107,0.031c-1.321,0.088-2.386,0.48-3.157,1.137
		c-1.116,1.79-1.548,0.253-1.557,7.007l-2.554,0.002l0.005,4.298L27.644,30.553z"/>
</g>
</svg>
