<?xml version="1.0" encoding="utf-8"?>
<!-- Generator: Adobe Illustrator 16.0.0, SVG Export Plug-In . SVG Version: 6.00 Build 0)  -->
<!DOCTYPE svg PUBLIC "-//W3C//DTD SVG 1.1//EN" "http://www.w3.org/Graphics/SVG/1.1/DTD/svg11.dtd">
<svg version="1.1" id="_x2014_ÎÓÈ_x5F_1" xmlns="http://www.w3.org/2000/svg" xmlns:xlink="http://www.w3.org/1999/xlink"
	 x="0px" y="0px" width="1371px" height="1604.7px" viewBox="0 0 1371 1604.7" enable-background="new 0 0 1371 1604.7"
	 xml:space="preserve">
<g>
	<polygon fill="#FFFFFF" points="1100.64,646.36 988.32,646.36 988.32,710.18 932.16,710.18 932.16,518.727 819.839,518.727 
		819.839,710.18 763.68,710.18 763.68,454.907 651.36,454.907 651.36,710.18 595.201,710.18 595.201,135.819 482.88,135.819 
		482.88,461.817 482.88,837.819 426.721,837.819 426.721,774 370.559,774 370.559,710.18 258.239,710.18 258.239,837.819 
		314.4,837.819 314.4,965.452 370.559,965.452 370.559,1093.093 426.721,1093.093 426.721,1220.727 482.88,1220.727 
		482.88,1412.181 811.458,1412.181 932.16,1412.181 932.16,1220.727 988.32,1220.727 988.32,1093.093 1044.479,1082.879 
		1044.479,965.452 1100.64,965.452 1100.64,832.842 	"/>
	<rect x="482.88" y="72" width="112.321" height="63.819"/>
	<polygon points="651.36,710.18 651.36,454.907 763.68,454.907 763.68,391.093 651.36,391.093 651.36,135.819 595.201,135.819 
		595.201,710.18 	"/>
	<path d="M747.639,1476H932.16v-63.819H811.458C790.186,1433.452,768.911,1454.727,747.639,1476z"/>
	<path d="M426.721,774v63.819h56.159V461.817c-9.293,7.787-18.587,15.582-27.82,23.443c-9.644,8.208-18.993,17.708-28.339,27.616
		V710.18h-56.162V774H426.721z"/>
	<polygon points="819.839,710.18 819.839,518.727 932.16,518.727 932.16,454.907 819.839,454.907 763.68,454.907 763.68,710.18 	"/>
	<polygon points="988.32,710.18 988.32,646.36 1100.64,646.36 1100.64,582.547 988.32,582.547 988.32,518.727 932.16,518.727 
		932.16,710.18 	"/>
	<path d="M426.721,1220.727v-127.634h-56.162V965.452H314.4V837.819h-56.161V710.18h112.319v-63.82H258.239v58.561
		c-18.719,18.721-37.438,37.44-56.159,56.16v140.553h56.159v127.64H314.4v127.634h56.158v127.64h56.162v127.634h56.159v-191.454
		H426.721z"/>
	<polygon points="1044.479,1082.879 988.32,1093.093 988.32,1220.727 932.16,1220.727 932.16,1412.181 988.32,1412.181 
		988.32,1284.547 1044.479,1284.547 1044.479,1156.907 1100.64,1156.907 1100.64,965.452 1044.479,965.452 	"/>
	<path d="M1100.64,965.452h56.161V776.681c-18.721,18.721-37.44,37.44-56.161,56.161V965.452z"/>
	<path d="M455.06,485.26c9.233-7.861,18.527-15.656,27.82-23.443V135.819h-56.159v377.057
		C436.066,502.968,445.416,493.468,455.06,485.26z"/>
	<path d="M482.88,1412.181V1476h264.759c21.272-21.273,42.547-42.548,63.819-63.819H482.88z"/>
	<path d="M258.239,646.36h-56.159v114.721c18.72-18.72,37.439-37.439,56.159-56.16V646.36z"/>
	<path d="M1100.64,832.842c18.721-18.721,37.44-37.439,56.161-56.161V646.36h-56.161V832.842z"/>
</g>
</svg>
