<?xml version="1.0" encoding="utf-8"?>
<!-- Generator: Adobe Illustrator 16.0.4, SVG Export Plug-In . SVG Version: 6.00 Build 0)  -->
<!DOCTYPE svg PUBLIC "-//W3C//DTD SVG 1.1//EN" "http://www.w3.org/Graphics/SVG/1.1/DTD/svg11.dtd">
<svg version="1.1" id="Layer_1" xmlns="http://www.w3.org/2000/svg" xmlns:xlink="http://www.w3.org/1999/xlink" x="0px" y="0px"
	 width="58.947px" height="57.895px" viewBox="0 0 58.947 57.895" enable-background="new 0 0 58.947 57.895" xml:space="preserve">
<g>
	<path fill="#FFFFFF" d="M29.044,18.479c4.426-0.312,4.476,6.263,0.336,6.312C25.16,24.844,24.85,18.775,29.044,18.479
		 M36.928,22.683c0.541-3.791-1.895-7.904-6.369-8.67c-3.799-0.647-8.283,1.665-8.986,6.307
		C20.02,30.545,35.468,32.948,36.928,22.683"/>
	<path fill="#FFFFFF" d="M32.912,35.583c0.717-0.484,6.707-1.873,4.946-5.02c-2.063-3.686-4.763,2.604-11.739,0.359
		c-1.842-0.594-2.889-1.83-4.447-0.709c-1.301,0.934-1.104,2.818-0.026,3.639c1.074,0.816,3.354,1.553,4.71,1.855
		c-1.301,2.004-6.635,5.404-3.918,7.723c2.268,1.936,4.509-1.561,7.27-4.471c1.059,0.828,2.272,2.049,3.283,3.02
		c1.178,1.133,2.793,2.551,4.305,1.01C39.479,40.768,35.791,38.338,32.912,35.583"/>
</g>
</svg>
