<?xml version="1.0" encoding="utf-8"?>
<!-- Generator: Adobe Illustrator 16.0.0, SVG Export Plug-In . SVG Version: 6.00 Build 0)  -->
<!DOCTYPE svg PUBLIC "-//W3C//DTD SVG 1.1//EN" "http://www.w3.org/Graphics/SVG/1.1/DTD/svg11.dtd">
<svg version="1.1" id="Layer_1" xmlns="http://www.w3.org/2000/svg" xmlns:xlink="http://www.w3.org/1999/xlink" x="0px" y="0px"
	 width="150.333px" height="76px" viewBox="0 0 150.333 76" enable-background="new 0 0 150.333 76" xml:space="preserve">
<g>
	<g>
		<path fill="#FFFFFF" d="M37.333,7.356c-1.219,0.005-30,0.457-30,30v3c0.005,1.219,0.457,30,30,30h75.5c1.219-0.006,30-0.457,30-30
			v-3c-0.005-1.219-0.457-30-30-30H37.333z"/>
	</g>
</g>
<g>
	<g>
		<path fill="#48AE4D" d="M59.478,52.821c-7.526,0-9.626-5.705-9.626-12.321c0-6.476,2.17-12.951,10.221-12.951
			c8.016,0,9.451,6.511,9.451,12.251C69.523,47.151,66.933,52.821,59.478,52.821z M59.862,31.434c-5.006,0-5.251,5.076-5.251,8.961
			c0,4.165,0.596,8.541,5.041,8.541c4.865,0,5.11-4.762,5.11-8.961C64.763,36.334,64.553,31.434,59.862,31.434z"/>
	</g>
	<g>
		<path fill="#48AE4D" d="M72.951,33.814c0-4.025,2.905-6.301,6.161-6.301c3.255,0,6.195,1.505,6.195,6.021
			c0,3.99-2.905,6.195-6.301,6.195C75.786,39.729,72.951,38.084,72.951,33.814z M74.911,48.375l19.742-18.622l2.45,2.555
			L77.361,50.93L74.911,48.375z M81.387,33.534c0-1.89-0.77-2.8-2.274-2.8c-1.12,0-2.206,0.735-2.206,3.081
			c0,1.925,0.735,2.66,2.101,2.66S81.387,35.529,81.387,33.534z M87.163,46.975c0-4.025,2.905-6.301,6.16-6.301
			c3.256,0,6.195,1.506,6.195,6.021c0,3.99-2.905,6.16-6.3,6.16C89.998,52.856,87.163,51.247,87.163,46.975z M95.599,46.696
			c0-1.891-0.771-2.801-2.275-2.801c-1.12,0-2.24,0.734-2.24,3.08c0,1.926,0.735,2.625,2.136,2.625
			C94.583,49.6,95.599,48.69,95.599,46.696z"/>
	</g>
</g>
<g>
	<g>
		<path fill="#48AE4D" d="M112.84,73.356H37.333c-16.833,0-24.92-8.789-28.741-16.163c-4.106-7.926-4.256-15.938-4.259-16.825
			v-3.012c0-16.833,8.79-24.92,16.163-28.741c7.926-4.106,15.938-4.256,16.825-4.259h75.512c16.834,0,24.921,8.79,28.74,16.163
			c4.106,7.926,4.256,15.938,4.26,16.825v3.012c0,16.834-8.789,24.921-16.163,28.74c-7.914,4.1-15.934,4.256-16.822,4.26H112.84z
			 M37.333,10.356c-0.283,0.001-7.287,0.069-14.077,3.587c-8.575,4.442-12.923,12.32-12.923,23.413v3
			c0.001,0.283,0.069,7.287,3.587,14.077c4.442,8.575,12.32,12.923,23.413,12.923h75.492c0.384-0.003,7.351-0.099,14.085-3.587
			c8.575-4.442,12.923-12.32,12.923-23.413v-3c-0.001-0.283-0.069-7.287-3.587-14.077c-4.442-8.575-12.319-12.923-23.413-12.923
			H37.333z"/>
	</g>
</g>
</svg>
