<?xml version="1.0" encoding="utf-8"?>
<!-- Generator: Adobe Illustrator 16.0.0, SVG Export Plug-In . SVG Version: 6.00 Build 0)  -->
<!DOCTYPE svg PUBLIC "-//W3C//DTD SVG 1.1//EN" "http://www.w3.org/Graphics/SVG/1.1/DTD/svg11.dtd">
<svg version="1.1" id="Layer_1" xmlns="http://www.w3.org/2000/svg" xmlns:xlink="http://www.w3.org/1999/xlink" x="0px" y="0px"
	 width="150.333px" height="76px" viewBox="0 0 150.333 76" enable-background="new 0 0 150.333 76" xml:space="preserve">
<g>
	<g>
		<path fill="#FFFFFF" d="M39,6.69c-1.219,0.005-30,0.457-30,30v3c0.005,1.219,0.457,30,30,30h75.5c1.219-0.005,30-0.457,30-30v-3
			c-0.006-1.219-0.457-30-30-30H39z"/>
	</g>
</g>
<g>
	<g>
		<path fill="#E02127" d="M36.19,51.84V30.978h-4.936v-3.64l9.626-0.28V51.84H36.19z"/>
	</g>
	<g>
		<path fill="#E02127" d="M55.93,52.156c-7.526,0-9.626-5.706-9.626-12.321c0-6.476,2.17-12.952,10.221-12.952
			c8.016,0,9.451,6.511,9.451,12.25C65.976,46.485,63.385,52.156,55.93,52.156z M56.315,30.768c-5.006,0-5.251,5.076-5.251,8.961
			c0,4.166,0.596,8.541,5.041,8.541c4.865,0,5.11-4.761,5.11-8.961C61.215,35.668,61.005,30.768,56.315,30.768z"/>
	</g>
	<g>
		<path fill="#E02127" d="M79.8,52.156c-7.526,0-9.625-5.706-9.625-12.321c0-6.476,2.17-12.952,10.221-12.952
			c8.016,0,9.451,6.511,9.451,12.25C89.847,46.485,87.255,52.156,79.8,52.156z M80.185,30.768c-5.005,0-5.25,5.076-5.25,8.961
			c0,4.166,0.596,8.541,5.042,8.541c4.865,0,5.109-4.761,5.109-8.961C85.085,35.668,84.876,30.768,80.185,30.768z"/>
	</g>
	<g>
		<path fill="#E02127" d="M93.272,33.148c0-4.025,2.906-6.301,6.162-6.301c3.254,0,6.195,1.505,6.195,6.021
			c0,3.991-2.906,6.196-6.301,6.196C96.108,39.064,93.272,37.418,93.272,33.148z M95.233,47.709l19.742-18.622l2.449,2.555
			L97.683,50.265L95.233,47.709z M101.708,32.868c0-1.89-0.77-2.8-2.273-2.8c-1.121,0-2.207,0.735-2.207,3.081
			c0,1.925,0.736,2.661,2.102,2.661S101.708,34.864,101.708,32.868z M107.485,46.31c0-4.026,2.904-6.301,6.16-6.301
			s6.195,1.505,6.195,6.021c0,3.99-2.906,6.16-6.301,6.16C110.319,52.19,107.485,50.581,107.485,46.31z M115.921,46.03
			c0-1.891-0.771-2.801-2.275-2.801c-1.121,0-2.24,0.735-2.24,3.081c0,1.925,0.734,2.625,2.135,2.625
			C114.905,48.935,115.921,48.025,115.921,46.03z"/>
	</g>
</g>
<g>
	<g>
		<path fill="#E02127" d="M114.507,72.69H39c-16.833,0-24.92-8.789-28.741-16.163C6.154,48.601,6.004,40.589,6,39.702V36.69
			c0-16.833,8.79-24.92,16.163-28.741c7.926-4.106,15.938-4.256,16.825-4.259h75.513c16.834,0,24.921,8.79,28.74,16.163
			c4.1,7.914,4.256,15.934,4.26,16.823v3.015c0,16.834-8.789,24.921-16.163,28.74c-7.926,4.106-15.938,4.256-16.825,4.26H114.507z
			 M39,9.69c-0.283,0.001-7.287,0.069-14.077,3.587C16.349,17.719,12,25.597,12,36.69v3c0.001,0.283,0.069,7.287,3.587,14.077
			C20.03,62.342,27.907,66.69,39,66.69h75.493c0.353-0.002,7.324-0.085,14.085-3.587c8.575-4.442,12.923-12.319,12.923-23.413v-3
			c-0.001-0.281-0.075-7.297-3.587-14.077c-4.442-8.575-12.319-12.923-23.413-12.923H39z"/>
	</g>
</g>
</svg>
