<?xml version="1.0" encoding="utf-8"?>
<!-- Generator: Adobe Illustrator 16.0.0, SVG Export Plug-In . SVG Version: 6.00 Build 0)  -->
<!DOCTYPE svg PUBLIC "-//W3C//DTD SVG 1.1//EN" "http://www.w3.org/Graphics/SVG/1.1/DTD/svg11.dtd">
<svg version="1.1" id="Layer_1" xmlns="http://www.w3.org/2000/svg" xmlns:xlink="http://www.w3.org/1999/xlink" x="0px" y="0px"
	 width="150.333px" height="76px" viewBox="0 0 150.333 76" enable-background="new 0 0 150.333 76" xml:space="preserve">
<g>
	<g>
		<path fill="#FFFFFF" d="M35,6.69c-1.219,0.005-30,0.457-30,30v3c0.005,1.219,0.457,30,30,30h75.5c1.219-0.005,30-0.457,30-30v-3
			c-0.005-1.219-0.457-30-30-30H35z"/>
	</g>
</g>
<g>
	<g>
		<path fill="#F8AB14" d="M44.264,52.19c-3.22,0-5.25-0.35-6.721-0.84l1.121-3.815c1.96,0.49,3.43,0.63,5.565,0.63
			c2.8,0,4.55-1.47,4.55-3.71c0-2.905-1.575-4.061-4.165-4.061c-0.49,0-0.98,0.035-1.436,0.035c-1.26,0-2.66,0.035-4.76,0.245
			V27.093H52.28v3.78h-9.347v5.846c0.806-0.035,1.436-0.035,2.206-0.035c5.075,0,8.296,2.66,8.296,7.385
			C53.436,49.32,49.515,52.19,44.264,52.19z"/>
	</g>
	<g>
		<path fill="#F8AB14" d="M66.699,52.156c-7.526,0-9.626-5.706-9.626-12.321c0-6.476,2.17-12.952,10.221-12.952
			c8.016,0,9.451,6.511,9.451,12.25C76.745,46.485,74.154,52.156,66.699,52.156z M67.084,30.768c-5.006,0-5.251,5.076-5.251,8.961
			c0,4.166,0.596,8.541,5.041,8.541c4.865,0,5.11-4.761,5.11-8.961C71.984,35.668,71.774,30.768,67.084,30.768z"/>
	</g>
	<g>
		<path fill="#F8AB14" d="M80.173,33.148c0-4.025,2.905-6.301,6.161-6.301c3.255,0,6.195,1.505,6.195,6.021
			c0,3.991-2.905,6.196-6.301,6.196C83.008,39.064,80.173,37.418,80.173,33.148z M82.133,47.709l19.742-18.622l2.45,2.555
			L84.583,50.265L82.133,47.709z M88.608,32.868c0-1.89-0.77-2.8-2.274-2.8c-1.12,0-2.206,0.735-2.206,3.081
			c0,1.925,0.735,2.661,2.101,2.661S88.608,34.864,88.608,32.868z M94.385,46.31c0-4.026,2.905-6.301,6.16-6.301
			c3.256,0,6.195,1.505,6.195,6.021c0,3.99-2.905,6.16-6.3,6.16C97.22,52.19,94.385,50.581,94.385,46.31z M102.82,46.03
			c0-1.891-0.771-2.801-2.275-2.801c-1.12,0-2.24,0.735-2.24,3.081c0,1.925,0.735,2.625,2.136,2.625
			C101.805,48.935,102.82,48.025,102.82,46.03z"/>
	</g>
</g>
<g>
	<g>
		<path fill="#F8AB14" d="M110.506,72.69H35c-16.833,0-24.92-8.789-28.741-16.163C2.153,48.601,2.003,40.589,2,39.702V36.69
			c0-16.833,8.79-24.92,16.163-28.741c7.926-4.106,15.938-4.256,16.825-4.259H110.5c16.834,0,24.921,8.79,28.74,16.163
			c4.106,7.926,4.256,15.938,4.26,16.826v3.012c0,16.834-8.789,24.921-16.163,28.74c-7.926,4.106-15.938,4.256-16.825,4.26H110.506z
			 M35,9.69c-0.283,0.001-7.287,0.069-14.077,3.587C12.348,17.719,8,25.597,8,36.69v3c0.001,0.283,0.069,7.287,3.587,14.077
			C16.029,62.342,23.907,66.69,35,66.69h75.492c0.353-0.002,7.324-0.085,14.085-3.587c8.575-4.442,12.923-12.319,12.923-23.413v-3
			c-0.001-0.283-0.069-7.287-3.587-14.077C129.471,14.038,121.594,9.69,110.5,9.69H35z"/>
	</g>
</g>
</svg>
