<?xml version="1.0" encoding="utf-8"?>
<!-- Generator: Adobe Illustrator 16.0.4, SVG Export Plug-In . SVG Version: 6.00 Build 0)  -->
<!DOCTYPE svg PUBLIC "-//W3C//DTD SVG 1.1//EN" "http://www.w3.org/Graphics/SVG/1.1/DTD/svg11.dtd">
<svg version="1.1" id="Layer_1" xmlns="http://www.w3.org/2000/svg" xmlns:xlink="http://www.w3.org/1999/xlink" x="0px" y="0px"
	 width="1051px" height="102.06px" viewBox="0 0 1051 102.06" enable-background="new 0 0 1051 102.06" xml:space="preserve">
<g>
	<path fill="#2FBE61" d="M231.736,62.701H24.84c-5.987,0-10.84-4.854-10.84-10.84c0-5.987,4.853-10.84,10.84-10.84h206.896
		c5.987,0,10.84,4.853,10.84,10.84C242.576,57.847,237.723,62.701,231.736,62.701"/>
	<path fill="#9CD079" d="M428.261,62.701H221.365c-5.987,0-10.84-4.854-10.84-10.84c0-5.987,4.853-10.84,10.84-10.84h206.896
		c5.987,0,10.84,4.853,10.84,10.84C439.101,57.847,434.248,62.701,428.261,62.701"/>
	<path fill="#FDBD58" d="M624.785,62.701H417.889c-5.986,0-10.84-4.854-10.84-10.84c0-5.987,4.854-10.84,10.84-10.84h206.896
		c5.987,0,10.84,4.853,10.84,10.84C635.625,57.847,630.772,62.701,624.785,62.701"/>
	<path fill="#FA723A" d="M821.311,62.701H614.414c-5.986,0-10.84-4.854-10.84-10.84c0-5.987,4.854-10.84,10.84-10.84h206.896
		c5.987,0,10.84,4.853,10.84,10.84C832.15,57.847,827.298,62.701,821.311,62.701"/>
	<path fill="#EC3933" d="M1017.836,62.701H810.939c-5.987,0-10.84-4.854-10.84-10.84c0-5.987,4.853-10.84,10.84-10.84h206.896
		c5.986,0,10.84,4.853,10.84,10.84C1028.676,57.847,1023.822,62.701,1017.836,62.701"/>
	<path fill="#FFFFFF" d="M54.578,57.861c3.314,0,6-2.686,6-6c0-3.313-2.686-6-6-6s-6,2.687-6,6
		C48.578,55.175,51.264,57.861,54.578,57.861"/>
	<path fill="#FFFFFF" d="M97.244,57.861c3.314,0,6-2.686,6-6c0-3.313-2.686-6-6-6s-6,2.687-6,6
		C91.244,55.175,93.93,57.861,97.244,57.861"/>
	<path fill="#FFFFFF" d="M139.911,57.861c3.314,0,6-2.686,6-6c0-3.313-2.686-6-6-6c-3.314,0-6,2.687-6,6
		C133.911,55.175,136.597,57.861,139.911,57.861"/>
	<path fill="#FFFFFF" d="M182.578,57.861c3.314,0,6-2.686,6-6c0-3.313-2.686-6-6-6s-6,2.687-6,6
		C176.578,55.175,179.264,57.861,182.578,57.861"/>
	<path fill="#FFFFFF" d="M251.103,57.861c3.314,0,6-2.686,6-6c0-3.313-2.686-6-6-6s-6,2.687-6,6
		C245.103,55.175,247.789,57.861,251.103,57.861"/>
	<path fill="#FFFFFF" d="M293.769,57.861c3.314,0,6-2.686,6-6c0-3.313-2.686-6-6-6s-6,2.687-6,6
		C287.769,55.175,290.455,57.861,293.769,57.861"/>
	<path fill="#FFFFFF" d="M336.436,57.861c3.314,0,6-2.686,6-6c0-3.313-2.686-6-6-6s-6,2.687-6,6
		C330.436,55.175,333.122,57.861,336.436,57.861"/>
	<path fill="#FFFFFF" d="M379.103,57.861c3.314,0,6-2.686,6-6c0-3.313-2.686-6-6-6s-6,2.687-6,6
		C373.103,55.175,375.789,57.861,379.103,57.861"/>
	<path fill="#FFFFFF" d="M447.627,57.861c3.314,0,6-2.686,6-6c0-3.313-2.686-6-6-6s-6,2.687-6,6
		C441.627,55.175,444.313,57.861,447.627,57.861"/>
	<path fill="#FFFFFF" d="M490.294,57.861c3.314,0,6-2.686,6-6c0-3.313-2.686-6-6-6c-3.314,0-6,2.687-6,6
		C484.294,55.175,486.979,57.861,490.294,57.861"/>
	<path fill="#FFFFFF" d="M532.961,57.861c3.313,0,6-2.686,6-6c0-3.313-2.687-6-6-6c-3.314,0-6,2.687-6,6
		C526.961,55.175,529.646,57.861,532.961,57.861"/>
	<path fill="#FFFFFF" d="M575.627,57.861c3.314,0,6-2.686,6-6c0-3.313-2.686-6-6-6s-6,2.687-6,6
		C569.627,55.175,572.312,57.861,575.627,57.861"/>
	<path fill="#FFFFFF" d="M644.152,57.861c3.313,0,6-2.686,6-6c0-3.313-2.687-6-6-6c-3.314,0-6,2.687-6,6
		C638.152,55.175,640.838,57.861,644.152,57.861"/>
	<path fill="#FFFFFF" d="M686.818,57.861c3.314,0,6-2.686,6-6c0-3.313-2.686-6-6-6c-3.313,0-6,2.687-6,6
		C680.818,55.175,683.505,57.861,686.818,57.861"/>
	<path fill="#FFFFFF" d="M729.485,57.861c3.314,0,6-2.686,6-6c0-3.313-2.686-6-6-6c-3.313,0-6,2.687-6,6
		C723.485,55.175,726.172,57.861,729.485,57.861"/>
	<path fill="#FFFFFF" d="M772.152,57.861c3.313,0,6-2.686,6-6c0-3.313-2.687-6-6-6c-3.314,0-6,2.687-6,6
		C766.152,55.175,768.838,57.861,772.152,57.861"/>
	<path fill="#FFFFFF" d="M850.388,57.861c3.313,0,6-2.686,6-6c0-3.313-2.687-6-6-6c-3.314,0-6,2.687-6,6
		C844.388,55.175,847.073,57.861,850.388,57.861"/>
	<path fill="#FFFFFF" d="M893.055,57.861c3.313,0,6-2.686,6-6c0-3.313-2.687-6-6-6c-3.314,0-6,2.687-6,6
		C887.055,55.175,889.74,57.861,893.055,57.861"/>
	<path fill="#FFFFFF" d="M935.721,57.861c3.314,0,6-2.686,6-6c0-3.313-2.686-6-6-6c-3.313,0-6,2.687-6,6
		C929.721,55.175,932.407,57.861,935.721,57.861"/>
	<path fill="#FFFFFF" d="M978.388,57.861c3.313,0,6-2.686,6-6c0-3.313-2.687-6-6-6c-3.314,0-6,2.687-6,6
		C972.388,55.175,975.073,57.861,978.388,57.861"/>
</g>
</svg>
