<?xml version="1.0" encoding="utf-8"?>
<!-- Generator: Adobe Illustrator 16.0.4, SVG Export Plug-In . SVG Version: 6.00 Build 0)  -->
<!DOCTYPE svg PUBLIC "-//W3C//DTD SVG 1.1//EN" "http://www.w3.org/Graphics/SVG/1.1/DTD/svg11.dtd">
<svg version="1.1" id="Layer_1" xmlns="http://www.w3.org/2000/svg" xmlns:xlink="http://www.w3.org/1999/xlink" x="0px" y="0px"
	 width="188px" height="187px" viewBox="0 0 188 187" enable-background="new 0 0 188 187" xml:space="preserve">
<g>
	<path fill="#2FBE61" d="M137.211,67.109c0,23.255-18.851,42.106-42.105,42.106C71.852,109.215,53,90.364,53,67.109
		c0-23.254,18.851-42.105,42.105-42.105C118.36,25.003,137.211,43.855,137.211,67.109"/>
	<path fill="#231F20" d="M84.994,56.061c0,3.251-2.635,5.886-5.886,5.886s-5.886-2.635-5.886-5.886s2.635-5.886,5.886-5.886
		S84.994,52.81,84.994,56.061"/>
	<path fill="#231F20" d="M116.99,56.061c0,3.251-2.636,5.886-5.887,5.886s-5.886-2.635-5.886-5.886s2.635-5.886,5.886-5.886
		S116.99,52.81,116.99,56.061"/>
	<path fill="#231F20" d="M110.357,74.618H79.854c-2.742,0-4.646,2.907-3.369,5.334c0.051,0.098,0.107,0.194,0.167,0.29
		c4.032,6.353,10.931,10.145,18.454,10.145c7.524,0,14.422-3.792,18.454-10.145c0.06-0.096,0.116-0.192,0.167-0.289
		C115.004,77.525,113.1,74.618,110.357,74.618"/>
</g>
<polygon fill="#9E1602" points="80.028,123.723 95.106,174.641 110.184,123.723 "/>
</svg>
