<?xml version="1.0" encoding="utf-8"?>
<!-- Generator: Adobe Illustrator 16.0.4, SVG Export Plug-In . SVG Version: 6.00 Build 0)  -->
<!DOCTYPE svg PUBLIC "-//W3C//DTD SVG 1.1//EN" "http://www.w3.org/Graphics/SVG/1.1/DTD/svg11.dtd">
<svg version="1.1" id="Layer_1" xmlns="http://www.w3.org/2000/svg" xmlns:xlink="http://www.w3.org/1999/xlink" x="0px" y="0px"
	 width="188px" height="187px" viewBox="0 0 188 187" enable-background="new 0 0 188 187" xml:space="preserve">
<g>
	<g>
		<g>
			<circle fill="#F15A29" cx="95.106" cy="67.156" r="42.034"/>
		</g>
	</g>
	<g>
		<g>
			<g>
				<circle fill="#231F20" cx="79.135" cy="56.127" r="5.876"/>
			</g>
		</g>
		<g>
			<g>
				<circle fill="#231F20" cx="111.076" cy="56.127" r="5.876"/>
			</g>
		</g>
		<g>
			<g>
				<path fill="#231F20" d="M110.097,90.394c-1.346,0-2.664-0.668-3.439-1.89c-2.522-3.976-6.841-6.351-11.55-6.351
					c-4.711,0-9.03,2.375-11.553,6.351c-1.205,1.897-3.718,2.46-5.615,1.256c-1.897-1.203-2.459-3.717-1.254-5.615
					c4.024-6.341,10.911-10.127,18.422-10.127c7.509,0,14.396,3.786,18.42,10.127c1.205,1.897,0.643,4.412-1.254,5.615
					C111.597,90.189,110.843,90.394,110.097,90.394z"/>
			</g>
		</g>
	</g>
</g>
<polygon fill="#9E1602" points="80.028,123.723 95.106,174.641 110.184,123.723 "/>
</svg>
