<?xml version="1.0" encoding="utf-8"?>
<!-- Generator: Adobe Illustrator 16.0.4, SVG Export Plug-In . SVG Version: 6.00 Build 0)  -->
<!DOCTYPE svg PUBLIC "-//W3C//DTD SVG 1.1//EN" "http://www.w3.org/Graphics/SVG/1.1/DTD/svg11.dtd">
<svg version="1.1" id="Layer_1" xmlns="http://www.w3.org/2000/svg" xmlns:xlink="http://www.w3.org/1999/xlink" x="0px" y="0px"
	 width="188px" height="187px" viewBox="0 0 188 187" enable-background="new 0 0 188 187" xml:space="preserve">
<g>
	<g>
		<g>
			<circle fill="#91CA60" cx="95.105" cy="67.081" r="42.133"/>
		</g>
	</g>
	<g>
		<g>
			<g>
				<g>
					<circle fill="#231F20" cx="79.097" cy="56.025" r="5.89"/>
				</g>
			</g>
			<g>
				<g>
					<circle fill="#231F20" cx="111.114" cy="56.025" r="5.89"/>
				</g>
			</g>
		</g>
		<g>
			<g>
				<path fill="#231F20" d="M95.106,90.373c-7.528,0-14.432-3.795-18.466-10.152c-1.206-1.901-0.643-4.421,1.258-5.627
					c1.9-1.206,4.421-0.645,5.628,1.257c2.529,3.986,6.859,6.366,11.58,6.366c4.721,0,9.049-2.379,11.58-6.366
					c1.206-1.901,3.727-2.463,5.628-1.257c1.9,1.206,2.466,3.726,1.258,5.627C109.538,86.578,102.635,90.373,95.106,90.373z"/>
			</g>
		</g>
	</g>
</g>
<polygon fill="#9E1602" points="80.028,123.723 95.106,174.641 110.184,123.723 "/>
</svg>
