<?xml version="1.0" encoding="utf-8"?>
<!-- Generator: Adobe Illustrator 16.0.4, SVG Export Plug-In . SVG Version: 6.00 Build 0)  -->
<!DOCTYPE svg PUBLIC "-//W3C//DTD SVG 1.1//EN" "http://www.w3.org/Graphics/SVG/1.1/DTD/svg11.dtd">
<svg version="1.1" id="Layer_1" xmlns="http://www.w3.org/2000/svg" xmlns:xlink="http://www.w3.org/1999/xlink" x="0px" y="0px"
	 width="58.947px" height="57.895px" viewBox="0 0 58.947 57.895" enable-background="new 0 0 58.947 57.895" xml:space="preserve">
<g>
	<path fill="#FFFFFF" d="M41.877,28.931c0.099-0.088,0.022,0.033,0.095-0.143l0.176-0.615c0.946-0.029,1.599-0.102,2.362-0.404
		l1.573-1.078c-0.521-0.008-1.068,0.135-1.915,0.004l-1.718-0.361c0.142-0.09,0.359-0.092,0.561-0.123
		c0.206-0.031,0.383-0.057,0.586-0.105c0.396-0.092,0.688-0.182,1.02-0.336l1.318-1.289c-0.602,0.236-1.146,0.336-1.959,0.346
		c-0.395,0.004-1.828-0.02-1.961-0.371c-0.156-0.418-0.156-0.814-0.484-1.598c-0.211-0.498-0.469-0.975-0.76-1.405
		c-0.599-0.884-1.34-1.619-2.215-2.184l-3.615-1.013c0.227-0.217,1.078-0.389,1.387-0.472c1.611-0.431,1.473-1.019,1.082-1.128
		c-0.498-0.14-1.713,0.318-2.256,0.484l0.974-1.031c-1.013,0.095-1.677,0.6-2.435,1.066l0.315-0.774
		c-0.955,0.32-2.679,2.597-3.157,3.509l-2.021,4.437c-0.174-0.07-1.369-1.297-2.283-1.844c-0.799-0.477-1.864-0.986-2.781-1.411
		c-2.205-1.021-3.783-1.643-6.039-2.469c-0.113,1.983,1.159,3.075,2.747,4.141l-1.937,0.254c0.035,0.848,0.689,1.729,1.185,2.152
		c0.903,0.77,1.376,0.775,2.204,1.086l0.171,0.088c-1.336,0.232-0.937,0.084-2.096,0.836c0.014,0.527,1.164,1.65,2.03,1.844
		l1.93,0.25c-0.133,0.123-0.342,0.209-0.5,0.311c-0.197,0.125-0.278,0.201-0.419,0.371c-0.267,0.324-0.405,0.689-0.231,1.137
		l2.235,1.018c-0.119,0.236-0.849,0.824-1.095,0.994c-1.338,0.926-2.84,1.576-4.756,1.66c-1.361,0.061-2.681-0.199-3.722-0.615
		c-1.2-0.48-1.692-0.883-2.608-1.59c0.269,0.463,0.877,1.102,1.25,1.494c3.504,3.717,9.172,5.77,15.099,4.711
		c3.618-0.646,5.95-1.895,8.069-3.443c0.349-0.256,1.182-1.002,1.48-1.311c0.922-0.951,1.741-1.969,2.34-3.145
		C41.282,30.513,41.903,29.29,41.877,28.931"/>
</g>
</svg>
