<?xml version="1.0" encoding="utf-8"?>
<!-- Generator: Adobe Illustrator 16.0.4, SVG Export Plug-In . SVG Version: 6.00 Build 0)  -->
<!DOCTYPE svg PUBLIC "-//W3C//DTD SVG 1.1//EN" "http://www.w3.org/Graphics/SVG/1.1/DTD/svg11.dtd">
<svg version="1.1" id="Layer_1" xmlns="http://www.w3.org/2000/svg" xmlns:xlink="http://www.w3.org/1999/xlink" x="0px" y="0px"
	 width="58.947px" height="57.895px" viewBox="0 0 58.947 57.895" enable-background="new 0 0 58.947 57.895" xml:space="preserve">
<g>
	<path fill="#9E1602" d="M41.877,28.931c0.1-0.088,0.022,0.033,0.096-0.143l0.176-0.615c0.945-0.029,1.599-0.103,2.361-0.404
		l1.573-1.078c-0.521-0.008-1.067,0.136-1.915,0.004l-1.718-0.36c0.142-0.09,0.359-0.092,0.561-0.123
		c0.206-0.031,0.384-0.058,0.587-0.105c0.396-0.092,0.688-0.182,1.02-0.336l1.318-1.289c-0.603,0.236-1.146,0.336-1.959,0.347
		c-0.396,0.004-1.828-0.021-1.961-0.371c-0.156-0.418-0.156-0.814-0.484-1.599c-0.211-0.498-0.469-0.975-0.76-1.404
		c-0.6-0.885-1.34-1.619-2.215-2.185l-3.615-1.013c0.227-0.217,1.078-0.389,1.387-0.472c1.611-0.432,1.473-1.02,1.082-1.129
		c-0.498-0.14-1.713,0.318-2.256,0.484l0.974-1.031c-1.013,0.096-1.677,0.601-2.435,1.066l0.314-0.774
		c-0.954,0.32-2.679,2.598-3.156,3.51l-2.021,4.437c-0.174-0.07-1.369-1.297-2.283-1.844c-0.799-0.478-1.863-0.986-2.78-1.411
		c-2.205-1.021-3.783-1.644-6.039-2.469c-0.113,1.982,1.159,3.074,2.747,4.141l-1.938,0.254c0.035,0.849,0.689,1.729,1.186,2.152
		c0.902,0.77,1.376,0.774,2.203,1.086l0.172,0.088c-1.336,0.232-0.938,0.084-2.097,0.836c0.015,0.527,1.164,1.65,2.03,1.844
		l1.93,0.25c-0.133,0.123-0.342,0.209-0.5,0.312c-0.196,0.125-0.277,0.201-0.419,0.371c-0.267,0.323-0.404,0.688-0.23,1.137
		l2.234,1.018c-0.119,0.236-0.849,0.824-1.095,0.994c-1.338,0.926-2.84,1.576-4.756,1.66c-1.361,0.062-2.681-0.199-3.722-0.615
		c-1.2-0.479-1.692-0.883-2.608-1.59c0.269,0.463,0.877,1.103,1.25,1.494c3.504,3.717,9.172,5.77,15.099,4.711
		c3.618-0.646,5.95-1.895,8.069-3.443c0.349-0.256,1.182-1.002,1.48-1.311c0.922-0.951,1.74-1.969,2.34-3.146
		C41.282,30.513,41.903,29.29,41.877,28.931"/>
</g>
</svg>
