<?xml version="1.0" encoding="utf-8"?>
<!-- Generator: Adobe Illustrator 16.0.4, SVG Export Plug-In . SVG Version: 6.00 Build 0)  -->
<!DOCTYPE svg PUBLIC "-//W3C//DTD SVG 1.1//EN" "http://www.w3.org/Graphics/SVG/1.1/DTD/svg11.dtd">
<svg version="1.1" id="Layer_1" xmlns="http://www.w3.org/2000/svg" xmlns:xlink="http://www.w3.org/1999/xlink" x="0px" y="0px"
	 width="58.947px" height="57.895px" viewBox="0 0 58.947 57.895" enable-background="new 0 0 58.947 57.895" xml:space="preserve">
<g>
	<path fill="#9E1C20" d="M40.09,28.856c1.821,1.678,3.092,3.045,3.812,4.1c0.335,0.527,0.443,0.996,0.322,1.402
		c-0.118,0.408-0.396,0.611-0.826,0.611l-4.747,0.217c-0.672,0.049-1.487-0.359-2.446-1.223s-1.607-1.584-1.941-2.158
		c-0.193-0.336-0.541-0.527-1.043-0.576c-0.504-0.047-0.828,0.191-0.971,0.721l-0.146,1.869c-0.048,0.385-0.192,0.672-0.431,0.863
		c-0.24,0.191-0.443,0.301-0.611,0.324s-0.444,0.061-0.828,0.107c-1.247,0.049-2.337-0.012-3.273-0.18
		c-0.935-0.168-1.785-0.516-2.553-1.043s-1.379-1.008-1.835-1.439c-0.455-0.432-1.114-1.127-1.978-2.086
		c-2.35-3.355-4.101-6.258-5.252-8.703c-0.431-0.959-0.67-1.775-0.719-2.446c0.192-0.191,0.553-0.312,1.079-0.359
		c0.528-0.049,1.296-0.061,2.302-0.036c1.008,0.023,1.606,0.036,1.799,0.036c0.479-0.049,0.863,0.216,1.15,0.792
		c1.199,2.683,2.374,4.771,3.525,6.257c0.767,0.719,1.271,0.6,1.51-0.361c0.098,0,0.145-1.174,0.145-3.523
		c0.047-1.487-0.551-2.422-1.799-2.805c0.289-0.768,1.295-1.15,3.021-1.15c0.432,0,0.959,0.023,1.583,0.07
		c0.623,0.049,0.959,0.073,1.006,0.073c1.44,0,2.159,0.575,2.159,1.726c-0.001,0.145-0.024,0.492-0.072,1.043
		c-0.048,0.551-0.085,1.078-0.107,1.582c-0.024,0.504-0.037,1.031-0.037,1.582c0,0.553,0.072,1.02,0.217,1.404
		c0.145,0.383,0.336,0.623,0.574,0.719c0.265-0.191,0.517-0.373,0.756-0.539c0.24-0.168,0.492-0.443,0.756-0.828
		c0.264-0.383,0.467-0.672,0.611-0.863c0.144-0.191,0.359-0.551,0.647-1.078c0.288-0.529,0.455-0.863,0.503-1.008
		c0.049-0.143,0.217-0.516,0.503-1.115c0.288-0.598,0.433-0.899,0.433-0.899l0.107-0.216c0.192-0.431,0.348-0.683,0.467-0.755
		c0.121-0.072,0.42-0.107,0.9-0.107h4.46c0.526,0,0.839,0.012,0.935,0.035c0.096,0.024,0.24,0.133,0.432,0.324
		c0.336,0.433,0.035,1.366-0.898,2.805c-0.936,1.439-1.835,2.637-2.697,3.598C39.395,26.961,39.227,28.04,40.09,28.856"/>
</g>
</svg>
