<svg xmlns="http://www.w3.org/2000/svg" width="58.947" height="57.895"><path fill="#FFF" d="M27.644 30.553c.064.08.028.636.028.739l.003 11.724h5.083c.029-3.086 0-6.253 0-9.353 0-.045-.01-3.003.004-3.065.01-.041.012-.035.021-.052.008.001 3.234.026 3.346-.002l.057-.016.447-4.279h-3.858c-.015-.632.003-1.281.004-1.915 0-.579-.015-1.294.33-1.611l3.504-.352-.006-4.293c-.663-.04-1.449-.003-2.126-.003-.703 0-1.416-.016-2.107.031-1.321.088-2.386.48-3.157 1.137-1.116 1.79-1.548.253-1.557 7.007l-2.554.002.005 4.298 2.533.003z"/></svg>