<svg xmlns="http://www.w3.org/2000/svg" width="58.947" height="57.895"><path fill="#9E1602" d="M27.644 30.553c.063.08.027.636.027.739l.003 11.724h5.083c.029-3.086 0-6.253 0-9.353 0-.045-.01-3.003.005-3.065.01-.041.012-.035.021-.052.008.001 3.234.025 3.346-.002l.058-.017.446-4.278h-3.857c-.016-.632.003-1.281.004-1.915 0-.579-.015-1.294.33-1.611l3.504-.352-.006-4.293c-.663-.04-1.449-.003-2.126-.003-.703 0-1.416-.017-2.107.03-1.32.088-2.386.48-3.157 1.138-1.115 1.79-1.548.253-1.557 7.007l-2.554.002.005 4.298 2.532.003z"/></svg>