<svg xmlns="http://www.w3.org/2000/svg" width="1371" height="1604.7"><path fill="#FFF" d="M1100.64 646.36H988.32v63.82h-56.16V518.727H819.839V710.18H763.68V454.907H651.36V710.18h-56.159V135.819H482.88v702h-56.159V774h-56.162v-63.82h-112.32v127.639H314.4v127.633h56.159v127.641h56.162v127.634h56.159v191.454h449.28v-191.454h56.16v-127.634l56.159-10.214V965.452h56.161v-132.61z"/><path d="M482.88 72h112.321v63.819H482.88zm168.48 638.18V454.907h112.32v-63.814H651.36V135.819h-56.159V710.18zM747.639 1476H932.16v-63.819H811.458L747.639 1476zM426.721 774v63.819h56.159V461.817c-9.293 7.787-18.587 15.582-27.82 23.443-9.644 8.208-18.993 17.708-28.339 27.616V710.18h-56.162V774h56.162z"/><path d="M819.839 710.18V518.727H932.16v-63.82H763.68V710.18zm168.481 0v-63.82h112.32v-63.813H988.32v-63.82h-56.16V710.18zm-561.599 510.547v-127.634h-56.162V965.452H314.4V837.819h-56.161V710.18h112.319v-63.82H258.239v58.561c-18.719 18.721-37.438 37.44-56.159 56.16v140.553h56.159v127.64H314.4v127.634h56.158v127.64h56.162v127.634h56.159v-191.454h-56.158zm617.758-137.848l-56.159 10.214v127.634h-56.16v191.454h56.16v-127.634h56.159v-127.64h56.161V965.452h-56.161zm56.161-117.427h56.161V776.681l-56.161 56.161v132.61zM455.06 485.26c9.233-7.861 18.527-15.656 27.82-23.443V135.819h-56.159v377.057c9.345-9.908 18.695-19.408 28.339-27.616zm27.82 926.921V1476h264.759l63.819-63.819H482.88z"/><path d="M258.239 646.36H202.08v114.721l56.159-56.16V646.36zm842.401 186.482l56.161-56.161V646.36h-56.161v186.482z"/></svg>