<svg xmlns="http://www.w3.org/2000/svg" width="58.947" height="57.895"><g fill="#FFF"><path d="M29.044 18.479c4.426-.312 4.476 6.263.336 6.312-4.22.053-4.53-6.016-.336-6.312m7.884 4.204c.541-3.791-1.895-7.904-6.369-8.67-3.799-.647-8.283 1.665-8.986 6.307-1.553 10.225 13.895 12.628 15.355 2.363"/><path d="M32.912 35.583c.717-.484 6.707-1.873 4.946-5.02-2.063-3.686-4.763 2.604-11.739.359-1.842-.594-2.889-1.83-4.447-.709-1.301.934-1.104 2.818-.026 3.639 1.074.816 3.354 1.553 4.71 1.855-1.301 2.004-6.635 5.404-3.918 7.723 2.268 1.936 4.509-1.561 7.27-4.471 1.059.828 2.272 2.049 3.283 3.02 1.178 1.133 2.793 2.551 4.305 1.01 2.183-2.221-1.505-4.651-4.384-7.406"/></g></svg>