<svg xmlns="http://www.w3.org/2000/svg" width="150.333" height="76"><path fill="#FFF" d="M35 6.69c-1.219.005-30 .457-30 30v3c.005 1.219.457 30 30 30h75.5c1.219-.005 30-.457 30-30v-3c-.005-1.219-.457-30-30-30H35z"/><path fill="#F8AB14" d="M44.264 52.19c-3.22 0-5.25-.35-6.721-.84l1.121-3.815c1.96.49 3.43.63 5.565.63 2.8 0 4.55-1.47 4.55-3.71 0-2.905-1.575-4.061-4.165-4.061-.49 0-.98.035-1.436.035-1.26 0-2.66.035-4.76.245V27.093H52.28v3.78h-9.347v5.846c.806-.035 1.436-.035 2.206-.035 5.075 0 8.296 2.66 8.296 7.385.001 5.251-3.92 8.121-9.171 8.121zm22.435-.034c-7.526 0-9.626-5.706-9.626-12.321 0-6.476 2.17-12.952 10.221-12.952 8.016 0 9.451 6.511 9.451 12.25 0 7.352-2.591 13.023-10.046 13.023zm.385-21.388c-5.006 0-5.251 5.076-5.251 8.961 0 4.166.596 8.541 5.041 8.541 4.865 0 5.11-4.761 5.11-8.961 0-3.641-.21-8.541-4.9-8.541zm13.089 2.38c0-4.025 2.905-6.301 6.161-6.301 3.255 0 6.195 1.505 6.195 6.021 0 3.991-2.905 6.196-6.301 6.196-3.22 0-6.055-1.646-6.055-5.916zm1.96 14.561l19.742-18.622 2.45 2.555-19.742 18.623-2.45-2.556zm6.475-14.841c0-1.89-.77-2.8-2.274-2.8-1.12 0-2.206.735-2.206 3.081 0 1.925.735 2.661 2.101 2.661s2.379-.946 2.379-2.942zm5.777 13.442c0-4.026 2.905-6.301 6.16-6.301 3.256 0 6.195 1.505 6.195 6.021 0 3.99-2.905 6.16-6.3 6.16-3.22 0-6.055-1.609-6.055-5.88zm8.435-.28c0-1.891-.771-2.801-2.275-2.801-1.12 0-2.24.735-2.24 3.081 0 1.925.735 2.625 2.136 2.625 1.364 0 2.379-.91 2.379-2.905z"/><path fill="#F8AB14" d="M110.506 72.69H35c-16.833 0-24.92-8.789-28.741-16.163C2.153 48.601 2.003 40.589 2 39.702V36.69c0-16.833 8.79-24.92 16.163-28.741 7.926-4.106 15.938-4.256 16.825-4.259H110.5c16.834 0 24.921 8.79 28.74 16.163 4.106 7.926 4.256 15.938 4.26 16.826v3.012c0 16.834-8.789 24.921-16.163 28.74-7.926 4.106-15.938 4.256-16.825 4.26h-.006zM35 9.69c-.283.001-7.287.069-14.077 3.587C12.348 17.719 8 25.597 8 36.69v3c.001.283.069 7.287 3.587 14.077C16.029 62.342 23.907 66.69 35 66.69h75.492c.353-.002 7.324-.085 14.085-3.587 8.575-4.442 12.923-12.319 12.923-23.413v-3c-.001-.283-.069-7.287-3.587-14.077C129.471 14.038 121.594 9.69 110.5 9.69H35z"/></svg>