<svg xmlns="http://www.w3.org/2000/svg" width="150.333" height="76"><path fill="#FFF" d="M37.333 7.356c-1.219.005-30 .457-30 30v3c.005 1.219.457 30 30 30h75.5c1.219-.006 30-.457 30-30v-3c-.005-1.219-.457-30-30-30h-75.5z"/><path fill="#48AE4D" d="M59.478 52.821c-7.526 0-9.626-5.705-9.626-12.321 0-6.476 2.17-12.951 10.221-12.951 8.016 0 9.451 6.511 9.451 12.251-.001 7.351-2.591 13.021-10.046 13.021zm.384-21.387c-5.006 0-5.251 5.076-5.251 8.961 0 4.165.596 8.541 5.041 8.541 4.865 0 5.11-4.762 5.11-8.961.001-3.641-.209-8.541-4.9-8.541zm13.089 2.38c0-4.025 2.905-6.301 6.161-6.301 3.255 0 6.195 1.505 6.195 6.021 0 3.99-2.905 6.195-6.301 6.195-3.22 0-6.055-1.645-6.055-5.915zm1.96 14.561l19.742-18.622 2.45 2.555L77.361 50.93l-2.45-2.555zm6.476-14.841c0-1.89-.77-2.8-2.274-2.8-1.12 0-2.206.735-2.206 3.081 0 1.925.735 2.66 2.101 2.66s2.379-.946 2.379-2.941zm5.776 13.441c0-4.025 2.905-6.301 6.16-6.301 3.256 0 6.195 1.506 6.195 6.021 0 3.99-2.905 6.16-6.3 6.16-3.22.001-6.055-1.608-6.055-5.88zm8.436-.279c0-1.891-.771-2.801-2.275-2.801-1.12 0-2.24.734-2.24 3.08 0 1.926.735 2.625 2.136 2.625 1.363 0 2.379-.91 2.379-2.904z"/><path fill="#48AE4D" d="M112.84 73.356H37.333c-16.833 0-24.92-8.789-28.741-16.163-4.106-7.926-4.256-15.938-4.259-16.825v-3.012c0-16.833 8.79-24.92 16.163-28.741 7.926-4.106 15.938-4.256 16.825-4.259h75.512c16.834 0 24.921 8.79 28.74 16.163 4.106 7.926 4.256 15.938 4.26 16.825v3.012c0 16.834-8.789 24.921-16.163 28.74-7.914 4.1-15.934 4.256-16.822 4.26h-.008zm-75.507-63c-.283.001-7.287.069-14.077 3.587-8.575 4.442-12.923 12.32-12.923 23.413v3c.001.283.069 7.287 3.587 14.077 4.442 8.575 12.32 12.923 23.413 12.923h75.492c.384-.003 7.351-.099 14.085-3.587 8.575-4.442 12.923-12.32 12.923-23.413v-3c-.001-.283-.069-7.287-3.587-14.077-4.442-8.575-12.319-12.923-23.413-12.923h-75.5z"/></svg>