<svg xmlns="http://www.w3.org/2000/svg" width="150.333" height="76"><path fill="#FFF" d="M39 6.69c-1.219.005-30 .457-30 30v3c.005 1.219.457 30 30 30h75.5c1.219-.005 30-.457 30-30v-3c-.006-1.219-.457-30-30-30H39z"/><path fill="#E02127" d="M36.19 51.84V30.978h-4.936v-3.64l9.626-.28V51.84h-4.69zm19.74.316c-7.526 0-9.626-5.706-9.626-12.321 0-6.476 2.17-12.952 10.221-12.952 8.016 0 9.451 6.511 9.451 12.25 0 7.352-2.591 13.023-10.046 13.023zm.385-21.388c-5.006 0-5.251 5.076-5.251 8.961 0 4.166.596 8.541 5.041 8.541 4.865 0 5.11-4.761 5.11-8.961 0-3.641-.21-8.541-4.9-8.541zM79.8 52.156c-7.526 0-9.625-5.706-9.625-12.321 0-6.476 2.17-12.952 10.221-12.952 8.016 0 9.451 6.511 9.451 12.25 0 7.352-2.592 13.023-10.047 13.023zm.385-21.388c-5.005 0-5.25 5.076-5.25 8.961 0 4.166.596 8.541 5.042 8.541 4.865 0 5.109-4.761 5.109-8.961-.001-3.641-.21-8.541-4.901-8.541zm13.087 2.38c0-4.025 2.906-6.301 6.162-6.301 3.254 0 6.195 1.505 6.195 6.021 0 3.991-2.906 6.196-6.301 6.196-3.22 0-6.056-1.646-6.056-5.916zm1.961 14.561l19.742-18.622 2.449 2.555-19.741 18.623-2.45-2.556zm6.475-14.841c0-1.89-.77-2.8-2.273-2.8-1.121 0-2.207.735-2.207 3.081 0 1.925.736 2.661 2.102 2.661s2.378-.946 2.378-2.942zm5.777 13.442c0-4.026 2.904-6.301 6.16-6.301s6.195 1.505 6.195 6.021c0 3.99-2.906 6.16-6.301 6.16-3.22 0-6.054-1.609-6.054-5.88zm8.436-.28c0-1.891-.771-2.801-2.275-2.801-1.121 0-2.24.735-2.24 3.081 0 1.925.734 2.625 2.135 2.625 1.364 0 2.38-.91 2.38-2.905z"/><path fill="#E02127" d="M114.507 72.69H39c-16.833 0-24.92-8.789-28.741-16.163C6.154 48.601 6.004 40.589 6 39.702V36.69c0-16.833 8.79-24.92 16.163-28.741 7.926-4.106 15.938-4.256 16.825-4.259h75.513c16.834 0 24.921 8.79 28.74 16.163 4.1 7.914 4.256 15.934 4.26 16.823v3.015c0 16.834-8.789 24.921-16.163 28.74-7.926 4.106-15.938 4.256-16.825 4.26h-.006zM39 9.69c-.283.001-7.287.069-14.077 3.587C16.349 17.719 12 25.597 12 36.69v3c.001.283.069 7.287 3.587 14.077C20.03 62.342 27.907 66.69 39 66.69h75.493c.353-.002 7.324-.085 14.085-3.587 8.575-4.442 12.923-12.319 12.923-23.413v-3c-.001-.281-.075-7.297-3.587-14.077-4.442-8.575-12.319-12.923-23.413-12.923H39z"/></svg>