<svg xmlns="http://www.w3.org/2000/svg" width="1051" height="102.06"><path fill="#2FBE61" d="M231.736 62.701H24.84c-5.987 0-10.84-4.854-10.84-10.84 0-5.987 4.853-10.84 10.84-10.84h206.896c5.987 0 10.84 4.853 10.84 10.84 0 5.986-4.853 10.84-10.84 10.84"/><path fill="#9CD079" d="M428.261 62.701H221.365c-5.987 0-10.84-4.854-10.84-10.84 0-5.987 4.853-10.84 10.84-10.84h206.896c5.987 0 10.84 4.853 10.84 10.84 0 5.986-4.853 10.84-10.84 10.84"/><path fill="#FDBD58" d="M624.785 62.701H417.889c-5.986 0-10.84-4.854-10.84-10.84 0-5.987 4.854-10.84 10.84-10.84h206.896c5.987 0 10.84 4.853 10.84 10.84 0 5.986-4.853 10.84-10.84 10.84"/><path fill="#FA723A" d="M821.311 62.701H614.414c-5.986 0-10.84-4.854-10.84-10.84 0-5.987 4.854-10.84 10.84-10.84H821.31c5.987 0 10.84 4.853 10.84 10.84 0 5.986-4.852 10.84-10.839 10.84"/><path fill="#EC3933" d="M1017.836 62.701H810.939c-5.987 0-10.84-4.854-10.84-10.84 0-5.987 4.853-10.84 10.84-10.84h206.896c5.986 0 10.84 4.853 10.84 10.84.001 5.986-4.853 10.84-10.839 10.84"/><path fill="#FFF" d="M54.578 57.861a6 6 0 1 0 0-12 6 6 0 0 0 0 12m42.666 0a6 6 0 1 0 0-12 6 6 0 0 0 0 12m42.667 0a6 6 0 1 0 0-12 6 6 0 0 0 0 12m42.667 0a6 6 0 1 0 0-12 6 6 0 0 0 0 12m68.525 0a6 6 0 1 0 0-12 6 6 0 0 0 0 12m42.666 0a6 6 0 1 0 0-12 6 6 0 0 0 0 12m42.667 0a6 6 0 1 0 0-12 6 6 0 0 0 0 12m42.667 0a6 6 0 1 0 0-12 6 6 0 0 0 0 12m68.524 0a6 6 0 1 0 0-12 6 6 0 0 0 0 12m42.667 0a6 6 0 1 0 0-12 6 6 0 0 0 0 12m42.667 0a6 6 0 1 0 0-12 6 6 0 0 0 0 12m42.666 0a6 6 0 1 0 0-12 6 6 0 0 0 0 12m68.525 0a6 6 0 1 0 0-12 6 6 0 0 0 0 12m42.666 0a6 6 0 1 0 0-12 6 6 0 0 0 0 12m42.667 0a6 6 0 1 0 0-12 6 6 0 0 0 0 12m42.667 0a6 6 0 1 0 0-12 6 6 0 0 0 0 12m78.236 0a6 6 0 1 0 0-12 6 6 0 0 0 0 12m42.667 0a6 6 0 1 0 0-12 6 6 0 0 0 0 12m42.666 0a6 6 0 1 0 0-12 6 6 0 0 0 0 12m42.667 0a6 6 0 1 0 0-12 6 6 0 0 0 0 12"/></svg>