<svg xmlns="http://www.w3.org/2000/svg" width="188" height="187"><path fill="#2FBE61" d="M137.211 67.109c0 23.255-18.851 42.106-42.105 42.106C71.852 109.215 53 90.364 53 67.109c0-23.254 18.851-42.105 42.105-42.105 23.255-.001 42.106 18.851 42.106 42.105"/><path fill="#231F20" d="M84.994 56.061a5.886 5.886 0 1 1-11.771 0 5.886 5.886 0 0 1 11.771 0m31.996 0a5.887 5.887 0 1 1-11.773-.001 5.887 5.887 0 0 1 11.773.001m-6.633 18.557H79.854c-2.742 0-4.646 2.907-3.369 5.334.051.098.107.194.167.29 4.032 6.353 10.931 10.145 18.454 10.145 7.524 0 14.422-3.792 18.454-10.145a4.48 4.48 0 0 0 .167-.289c1.277-2.428-.627-5.335-3.37-5.335"/><path fill="#9E1602" d="M80.028 123.723l15.078 50.918 15.078-50.918z"/></svg>