<svg xmlns="http://www.w3.org/2000/svg" width="188" height="187"><circle fill="#F15A29" cx="95.106" cy="67.156" r="42.034"/><circle fill="#231F20" cx="79.135" cy="56.127" r="5.876"/><circle fill="#231F20" cx="111.076" cy="56.127" r="5.876"/><path fill="#231F20" d="M110.097 90.394a4.065 4.065 0 0 1-3.439-1.89 13.613 13.613 0 0 0-11.55-6.351c-4.711 0-9.03 2.375-11.553 6.351a4.069 4.069 0 1 1-6.869-4.359c4.024-6.341 10.911-10.127 18.422-10.127a21.712 21.712 0 0 1 18.42 10.127 4.067 4.067 0 0 1-3.431 6.249z"/><path fill="#9E1602" d="M80.028 123.723l15.078 50.918 15.078-50.918z"/></svg>