<svg xmlns="http://www.w3.org/2000/svg" width="58.947" height="57.895"><path fill="#FFF" d="M41.877 28.931c.099-.088.022.033.095-.143l.176-.615c.946-.029 1.599-.102 2.362-.404l1.573-1.078c-.521-.008-1.068.135-1.915.004l-1.718-.361c.142-.09.359-.092.561-.123.206-.031.383-.057.586-.105a4.882 4.882 0 0 0 1.02-.336l1.318-1.289c-.602.236-1.146.336-1.959.346-.395.004-1.828-.02-1.961-.371-.156-.418-.156-.814-.484-1.598a8.299 8.299 0 0 0-.76-1.405 7.741 7.741 0 0 0-2.215-2.184l-3.615-1.013c.227-.217 1.078-.389 1.387-.472 1.611-.431 1.473-1.019 1.082-1.128-.498-.14-1.713.318-2.256.484l.974-1.031c-1.013.095-1.677.6-2.435 1.066l.315-.774c-.955.32-2.679 2.597-3.157 3.509l-2.021 4.437c-.174-.07-1.369-1.297-2.283-1.844-.799-.477-1.864-.986-2.781-1.411-2.205-1.021-3.783-1.643-6.039-2.469-.113 1.983 1.159 3.075 2.747 4.141l-1.937.254c.035.848.689 1.729 1.185 2.152.903.77 1.376.775 2.204 1.086l.171.088c-1.336.232-.937.084-2.096.836.014.527 1.164 1.65 2.03 1.844l1.93.25c-.133.123-.342.209-.5.311a1.487 1.487 0 0 0-.419.371c-.267.324-.405.689-.231 1.137l2.235 1.018c-.119.236-.849.824-1.095.994-1.338.926-2.84 1.576-4.756 1.66a9.152 9.152 0 0 1-3.722-.615c-1.2-.48-1.692-.883-2.608-1.59.269.463.877 1.102 1.25 1.494 3.504 3.717 9.172 5.77 15.099 4.711 3.618-.646 5.95-1.895 8.069-3.443.349-.256 1.182-1.002 1.48-1.311.922-.951 1.741-1.969 2.34-3.145.179-.353.8-1.576.774-1.935"/></svg>