<svg xmlns="http://www.w3.org/2000/svg" width="58.947" height="57.895"><path fill="#9E1602" d="M41.877 28.931c.1-.088.022.033.096-.143l.176-.615c.945-.029 1.599-.103 2.361-.404l1.573-1.078c-.521-.008-1.067.136-1.915.004l-1.718-.36c.142-.09.359-.092.561-.123.206-.031.384-.058.587-.105a4.882 4.882 0 0 0 1.02-.336l1.318-1.289c-.603.236-1.146.336-1.959.347-.396.004-1.828-.021-1.961-.371-.156-.418-.156-.814-.484-1.599a8.251 8.251 0 0 0-.76-1.404 7.757 7.757 0 0 0-2.215-2.185l-3.615-1.013c.227-.217 1.078-.389 1.387-.472 1.611-.432 1.473-1.02 1.082-1.129-.498-.14-1.713.318-2.256.484l.974-1.031c-1.013.096-1.677.601-2.435 1.066l.314-.774c-.954.32-2.679 2.598-3.156 3.51l-2.021 4.437c-.174-.07-1.369-1.297-2.283-1.844-.799-.478-1.863-.986-2.78-1.411-2.205-1.021-3.783-1.644-6.039-2.469-.113 1.982 1.159 3.074 2.747 4.141l-1.938.254c.035.849.689 1.729 1.186 2.152.902.77 1.376.774 2.203 1.086l.172.088c-1.336.232-.938.084-2.097.836.015.527 1.164 1.65 2.03 1.844l1.93.25c-.133.123-.342.209-.5.312a1.515 1.515 0 0 0-.419.371c-.267.323-.404.688-.23 1.137l2.234 1.018c-.119.236-.849.824-1.095.994-1.338.926-2.84 1.576-4.756 1.66a9.135 9.135 0 0 1-3.722-.615c-1.2-.479-1.692-.883-2.608-1.59.269.463.877 1.103 1.25 1.494 3.504 3.717 9.172 5.77 15.099 4.711 3.618-.646 5.95-1.895 8.069-3.443.349-.256 1.182-1.002 1.48-1.311.922-.951 1.74-1.969 2.34-3.146.178-.354.799-1.577.773-1.936"/></svg>