<svg xmlns="http://www.w3.org/2000/svg" width="58.947" height="57.895"><path fill="#FFF" d="M40.09 28.856c1.821 1.678 3.092 3.045 3.812 4.1.335.527.443.996.322 1.402-.118.408-.396.611-.826.611l-4.747.217c-.672.049-1.487-.359-2.446-1.223s-1.607-1.584-1.941-2.158c-.193-.336-.541-.527-1.043-.576-.504-.047-.828.191-.971.721l-.146 1.869c-.048.385-.192.672-.431.863-.24.191-.443.301-.611.324s-.444.061-.828.107c-1.247.049-2.337-.012-3.273-.18-.935-.168-1.785-.516-2.553-1.043s-1.379-1.008-1.835-1.439c-.455-.432-1.114-1.127-1.978-2.086-2.35-3.355-4.101-6.258-5.252-8.703-.431-.959-.67-1.775-.719-2.446.192-.191.553-.312 1.079-.359.528-.049 1.296-.061 2.302-.036a142.7 142.7 0 0 0 1.799.036c.479-.049.863.216 1.15.792 1.199 2.683 2.374 4.771 3.525 6.257.767.719 1.271.6 1.51-.361.098 0 .145-1.174.145-3.523.047-1.487-.551-2.422-1.799-2.805.289-.768 1.295-1.15 3.021-1.15.432 0 .959.023 1.583.07.623.049.959.073 1.006.073 1.44 0 2.159.575 2.159 1.726-.001.145-.024.492-.072 1.043a36.792 36.792 0 0 0-.144 3.164c0 .553.072 1.02.217 1.404.145.383.336.623.574.719.265-.191.517-.373.756-.539.24-.168.492-.443.756-.828.264-.383.467-.672.611-.863.144-.191.359-.551.647-1.078.288-.529.455-.863.503-1.008.049-.143.217-.516.503-1.115l.433-.899.107-.216c.192-.431.348-.683.467-.755.121-.072.42-.107.9-.107h4.46c.526 0 .839.012.935.035.096.024.24.133.432.324.336.433.035 1.366-.898 2.805-.936 1.439-1.835 2.637-2.697 3.598-1.199 1.341-1.367 2.42-.504 3.236"/></svg>